<svg width="24" height="24" viewBox="0 0 24 24" fill="none" xmlns="http://www.w3.org/2000/svg">
<circle cx="12" cy="12" r="12" fill="white"/>
<path d="M14.5002 16.1667H18.6668L17.4961 14.9959C17.1785 14.6784 17.0002 14.2477 17.0002 13.7987V11.1667C17.0002 8.98964 15.6088 7.13757 13.6668 6.45118V6.16667C13.6668 5.24619 12.9206 4.5 12.0002 4.5C11.0797 4.5 10.3335 5.24619 10.3335 6.16667V6.45118C8.39151 7.13757 7.00016 8.98964 7.00016 11.1667V13.7987C7.00016 14.2477 6.82179 14.6784 6.50427 14.9959L5.3335 16.1667H9.50016M14.5002 16.1667V17C14.5002 18.3807 13.3809 19.5 12.0002 19.5C10.6195 19.5 9.50016 18.3807 9.50016 17V16.1667M14.5002 16.1667H9.50016" stroke="#FF6C0E" stroke-width="1.5" stroke-linecap="round" stroke-linejoin="round"/>
<path d="M20.6667 8.33333C20.6667 10.1743 19.1743 11.6667 17.3333 11.6667C15.4924 11.6667 14 10.1743 14 8.33333C14 6.49238 15.4924 5 17.3333 5C19.1743 5 20.6667 6.49238 20.6667 8.33333Z" fill="#0098FF"/>
</svg>
