<svg width="24" height="24" viewBox="0 0 24 24" fill="none" xmlns="http://www.w3.org/2000/svg">
<path d="M11.9998 23.9996C18.6271 23.9996 23.9996 18.6271 23.9996 11.9998C23.9996 5.37249 18.6271 0 11.9998 0C5.37249 0 0 5.37249 0 11.9998C0 18.6271 5.37249 23.9996 11.9998 23.9996Z" fill="#F0F0F0"/>
<path d="M12 8.86955H23.5864C23.2911 7.75933 22.8305 6.70817 22.24 5.73969H12.0118V8.86955H12Z" fill="#338AF3"/>
<path d="M4.53473 21.3899H19.4636C20.562 20.5159 21.4951 19.4647 22.2273 18.26H1.771C2.50327 19.4529 3.44813 20.5159 4.53473 21.3899Z" fill="#338AF3"/>
<path d="M11.9985 0.0124512C11.9985 1.0518 11.9985 2.62264 11.9985 2.62264H19.463C17.4197 0.980938 14.8213 0.0124512 11.9985 0.0124512Z" fill="#338AF3"/>
<path d="M12 8.86955H23.5864C23.2911 7.75933 22.8305 6.70817 22.24 5.73969H12.0118V8.86955H12Z" fill="#338AF3"/>
<path d="M0.012207 12C0.012207 13.0866 0.153937 14.126 0.425586 15.1299H23.5866C23.8582 14.1378 24 13.0866 24 12H0.012207Z" fill="#338AF3"/>
<path d="M10.4411 7.0276L8.97659 7.71262L9.75611 9.12992L8.16165 8.83465L7.96087 10.4409L6.85065 9.24803L5.75224 10.4409L5.55146 8.83465L3.957 9.12992L4.73651 7.71262L3.27197 7.0276L4.73651 6.33076L3.957 4.91346L5.53965 5.22054L5.75224 3.61427L6.85065 4.79535L7.96087 3.61427L8.16165 5.22054L9.75611 4.91346L8.97659 6.33076L10.4411 7.0276Z" fill="#FFDA44"/>
</svg>
