<svg width="24" height="24" viewBox="0 0 24 24" fill="none" xmlns="http://www.w3.org/2000/svg">
<path d="M12 23.9999C18.6273 23.9999 23.9999 18.6273 23.9999 12C23.9999 5.37256 18.6273 0 12 0C5.37256 0 0 5.37256 0 12C0 18.6273 5.37256 23.9999 12 23.9999Z" fill="#F0F0F0"/>
<path d="M23.9999 11.9998C23.9999 18.6271 18.6273 23.9997 12 23.9997C5.3726 23.9997 0 18.6271 0 11.9998C0 5.37243 12 11.9998 12 11.9998C12 11.9998 21.0825 11.9998 23.9999 11.9998Z" fill="#D80027"/>
<path d="M0 12C0 5.3726 5.3726 0 12 0C12 4.5635 12 12 12 12C12 12 4.17387 12 0 12Z" fill="#0052B4"/>
<path d="M7.1436 4.17377L7.92065 6.56523H10.4352L8.40088 8.04319L9.17788 10.4346L7.1436 8.95664L5.10933 10.4346L5.88632 8.04319L3.85205 6.56523H6.36656L7.1436 4.17377Z" fill="#F0F0F0"/>
</svg>
