<svg width="24" height="24" viewBox="0 0 24 24" fill="none" xmlns="http://www.w3.org/2000/svg">
<path d="M12 24C18.6274 24 24 18.6274 24 12C24 5.37258 18.6274 0 12 0C5.37258 0 0 5.37258 0 12C0 18.6274 5.37258 24 12 24Z" fill="#F0F0F0"/>
<path d="M23.9993 11.9999C23.9993 7.24005 21.2355 3.14163 17.2197 1.19281V22.7952C21.2355 20.8582 23.9993 16.7597 23.9993 11.9999Z" fill="#D80027"/>
<path d="M0.0112305 11.9999C0.0112305 16.7597 2.77501 20.8582 6.79076 22.807V1.19281C2.77501 3.14163 0.0112305 7.24005 0.0112305 11.9999Z" fill="#D80027"/>
<circle cx="12" cy="9" r="0.8" stroke="#6DA544" stroke-width="0.4"/>
<path d="M8 12.2465C8 14.3144 9.79623 16 12 16C14.2038 16 16 14.3144 16 12.2465V11H8V12.2465Z" fill="#6DA544"/>
<path d="M10 9.55556L10.5 9C10.5 9 11 9.55556 11.5 9.55556C12 9.55556 12 9 12 9C12 9 12 9.55556 12.5 9.55556C13 9.55556 13.5 9 13.5 9L14 9.55556C14 9.55556 13.5 10.6667 13.5 11.2222C13.5 11.7778 14 12.3333 14 12.8889C14 13.4444 13.5 14 12 14C10.5 14 10 13.4444 10 12.8889C10 12.3333 10.5 11.7778 10.5 11.2222C10.5 10.6667 10 9.55556 10 9.55556Z" fill="#D20F22" stroke="#F0F0F0" stroke-width="0.5"/>
</svg>
