<svg width="24" height="24" viewBox="0 0 24 24" fill="none" xmlns="http://www.w3.org/2000/svg">
<path d="M12 24C18.6274 24 24 18.6274 24 12C24 5.37258 18.6274 0 12 0C5.37258 0 0 5.37258 0 12C0 18.6274 5.37258 24 12 24Z" fill="#F0F0F0"/>
<path d="M23.9993 11.9999C23.9993 7.24005 21.2355 3.14163 17.2197 1.19281V22.7952C21.2355 20.8582 23.9993 16.7597 23.9993 11.9999Z" fill="#D80027"/>
<path d="M0.0112305 11.9999C0.0112305 16.7597 2.77501 20.8582 6.79076 22.807V1.19281C2.77501 3.14163 0.0112305 7.24005 0.0112305 11.9999Z" fill="#6DA544"/>
<path d="M8.86914 12.0001C8.86914 13.7245 10.2747 15.13 11.9991 15.13C13.7235 15.13 15.129 13.7245 15.129 12.0001V10.9607H8.86914V12.0001Z" fill="#6DA544"/>
<path d="M16.1809 9.90958H13.0509C13.0509 9.33084 12.5785 8.87021 12.0116 8.87021C11.4328 8.87021 10.9722 9.34265 10.9722 9.90958H7.84229C7.84229 10.4883 8.33835 10.9489 8.91709 10.9489H8.88166C8.88166 11.5277 9.3541 11.9883 9.92102 11.9883C9.92102 12.5671 10.3935 13.0277 10.9604 13.0277H13.0509C13.6297 13.0277 14.0903 12.5552 14.0903 11.9883C14.6691 11.9883 15.1297 11.5159 15.1297 10.9489H15.0943C15.673 10.9608 16.1809 10.4883 16.1809 9.90958Z" fill="#FF9811"/>
</svg>
