<svg width="24" height="24" viewBox="0 0 24 24" fill="none" xmlns="http://www.w3.org/2000/svg">
<path d="M12.0001 0C6.91776 0 2.61187 3.10588 0.847168 7.55294H23.153C21.3883 3.10588 17.0825 0 12.0001 0Z" fill="#82AFFF"/>
<path d="M12 23.9999C17.2941 23.9999 21.7411 20.5411 23.3647 15.8117H0.635254C2.25878 20.5411 6.70584 23.9999 12 23.9999Z" fill="#82AFFF"/>
<path d="M0 12C0 13.3412 0.211765 14.6117 0.635294 15.8117H23.3647C23.7882 14.6117 24 13.3412 24 12C24 10.447 23.7176 8.96468 23.1529 7.55292H0.847059C0.282353 8.96468 0 10.447 0 12Z" fill="#F5F5F5"/>
<circle cx="12.3529" cy="11.6471" r="2.47059" fill="#FFE15A"/>
</svg>
