<svg width="24" height="24" viewBox="0 0 24 24" fill="none" xmlns="http://www.w3.org/2000/svg">
<path d="M21 14V7C21 5.89543 20.1046 5 19 5H13L11 3H5C3.89543 3 3 3.89543 3 5V15C3 16.1046 3.89543 17 5 17H11.5" stroke="#4D4D4D" stroke-width="1.5" stroke-linecap="round" stroke-linejoin="round"/>
<path d="M17 15V17L18.5 18.5M22 17C22 19.7614 19.7614 22 17 22C14.2386 22 12 19.7614 12 17C12 14.2386 14.2386 12 17 12C19.7614 12 22 14.2386 22 17Z" stroke="#4D4D4D" stroke-width="1.5" stroke-linecap="round" stroke-linejoin="round"/>
</svg>
