<svg width="24" height="24" viewBox="0 0 24 24" fill="none" xmlns="http://www.w3.org/2000/svg">
<path d="M17.6569 16.6569C16.5372 17.7765 13.9571 20.3566 12.7059 21.6078C12.3154 21.9983 11.6849 21.9986 11.2944 21.6081C10.0633 20.377 7.54028 17.854 6.34315 16.6569C3.21895 13.5327 3.21895 8.46734 6.34315 5.34315C9.46734 2.21895 14.5327 2.21895 17.6569 5.34315C20.781 8.46734 20.781 13.5327 17.6569 16.6569Z" stroke="#4D4D4D" stroke-width="1.5" stroke-linecap="round" stroke-linejoin="round"/>
<path d="M16 9L12 7L8 9M16 9L12 11M16 9V14L12 16M8 9L12 11M8 9V14L12 16M12 11V16" stroke="#4D4D4D" stroke-width="1.5" stroke-linecap="round" stroke-linejoin="round"/>
</svg>
