<?xml version="1.0" standalone="no"?>
<!DOCTYPE svg PUBLIC "-//W3C//DTD SVG 20010904//EN"
 "http://www.w3.org/TR/2001/REC-SVG-20010904/DTD/svg10.dtd">
<svg version="1.0" xmlns="http://www.w3.org/2000/svg"
 width="512.000000pt" height="512.000000pt" viewBox="0 0 512.000000 512.000000"
 preserveAspectRatio="xMidYMid meet">

<g transform="translate(0.000000,512.000000) scale(0.100000,-0.100000)"
fill="#000000" stroke="none">
<path d="M2714 5102 c-80 -28 -137 -82 -174 -164 -16 -36 -20 -66 -20 -176 l0
-134 88 8 c104 10 358 9 436 0 l56 -7 0 125 c0 101 -4 136 -20 179 -53 142
-223 220 -366 169z"/>
<path d="M2551 4444 c-520 -71 -963 -311 -1291 -700 -222 -263 -369 -613 -396
-943 l-7 -81 1973 0 1972 0 -7 83 c-65 755 -679 1421 -1479 1602 -241 55 -536
70 -765 39z"/>
<path d="M549 2508 c5 -13 52 -112 104 -221 86 -178 102 -204 159 -261 37 -37
90 -77 126 -95 129 -65 6 -61 1892 -61 1892 0 1767 -4 1894 63 34 17 89 60
124 95 55 55 73 85 143 228 44 91 90 189 104 219 l24 55 -2289 0 -2290 0 9
-22z"/>
<path d="M4581 1664 c-24 -10 -738 -437 -818 -489 -2 -1 2 -17 7 -36 6 -19 11
-58 12 -87 1 -45 -2 -57 -24 -79 l-26 -26 -609 -47 c-651 -50 -656 -50 -682
-2 -29 55 4 127 62 137 18 3 244 21 502 40 620 46 578 41 570 73 -21 83 -123
196 -217 240 -117 56 -132 56 -574 21 -532 -41 -593 -37 -841 55 -173 65 -260
81 -433 80 -248 -1 -459 -69 -651 -209 l-49 -37 5 -61 c4 -34 21 -264 40 -511
19 -247 36 -450 37 -452 2 -1 40 21 86 51 106 69 183 95 297 102 82 4 148 -5
732 -106 704 -122 776 -129 953 -95 91 17 229 63 307 103 29 14 403 309 833
655 745 600 780 630 763 646 -50 48 -208 67 -282 34z"/>
<path d="M301 1564 c-161 -13 -294 -24 -296 -26 -3 -4 114 -1530 118 -1535 6
-6 582 40 590 47 9 8 -102 1521 -112 1531 -3 3 -138 -5 -300 -17z"/>
</g>
</svg>
