<svg xmlns="http://www.w3.org/2000/svg" xmlns:xlink="http://www.w3.org/1999/xlink" version="1.1" width="1000" height="1000" viewBox="0 0 1000 1000" xml:space="preserve">
<desc>Created with Fabric.js 3.5.0</desc>
<defs>
</defs>
<rect x="0" y="0" width="92" height="36" fill="#4e6560"/>
<g transform="matrix(37.8788 0 0 37.8788 500.0001 500.0001)" id="292319">
<g style="" vector-effect="non-scaling-stroke">
		<g transform="matrix(1 0 0 1 1.1719 -10.8421)" id="surface1">
<path style="stroke: none; stroke-width: 1; stroke-dasharray: none; stroke-linecap: butt; stroke-dashoffset: 0; stroke-linejoin: miter; stroke-miterlimit: 4; is-custom-font: none; font-file-url: none; fill: rgb(255,255,255); fill-rule: nonzero; opacity: 1;" transform=" translate(-13.1719, -1.1579)" d="M 12.722656 0.0859375 C 12.347656 0.214844 12.078125 0.46875 11.90625 0.851562 C 11.832031 1.023438 11.8125 1.164062 11.8125 1.679688 L 11.8125 2.304688 L 12.226562 2.269531 C 12.710938 2.222656 13.902344 2.226562 14.269531 2.269531 L 14.53125 2.300781 L 14.53125 1.714844 C 14.53125 1.242188 14.511719 1.078125 14.4375 0.875 C 14.1875 0.210938 13.390625 -0.15625 12.722656 0.0859375 Z M 12.722656 0.0859375" stroke-linecap="round"/>
</g>
		<g transform="matrix(1 0 0 1 1.2617 -4.828)" id="surface1">
<path style="stroke: none; stroke-width: 1; stroke-dasharray: none; stroke-linecap: butt; stroke-dashoffset: 0; stroke-linejoin: miter; stroke-miterlimit: 4; is-custom-font: none; font-file-url: none; fill: rgb(255,255,255); fill-rule: nonzero; opacity: 1;" transform=" translate(-13.2617, -7.172)" d="M 11.957031 3.167969 C 9.519531 3.5 7.445312 4.625 5.90625 6.449219 C 4.867188 7.683594 4.175781 9.324219 4.050781 10.871094 L 4.015625 11.25 L 22.507812 11.25 L 22.476562 10.859375 C 22.171875 7.320312 19.292969 4.199219 15.542969 3.351562 C 14.414062 3.09375 13.03125 3.023438 11.957031 3.167969 Z M 11.957031 3.167969" stroke-linecap="round"/>
</g>
		<g transform="matrix(1 0 0 1 1.2636 1.6876)" id="surface1">
<path style="stroke: none; stroke-width: 1; stroke-dasharray: none; stroke-linecap: butt; stroke-dashoffset: 0; stroke-linejoin: miter; stroke-miterlimit: 4; is-custom-font: none; font-file-url: none; fill: rgb(255,255,255); fill-rule: nonzero; opacity: 1;" transform=" translate(-13.2637, -13.6876)" d="M 2.574219 12.242188 C 2.597656 12.304688 2.816406 12.769531 3.0625 13.28125 C 3.464844 14.113281 3.539062 14.234375 3.804688 14.503906 C 3.980469 14.675781 4.226562 14.863281 4.398438 14.949219 C 5 15.253906 4.425781 15.234375 13.265625 15.234375 C 22.132812 15.234375 21.546875 15.253906 22.144531 14.9375 C 22.304688 14.859375 22.5625 14.65625 22.726562 14.492188 C 22.984375 14.234375 23.066406 14.09375 23.394531 13.425781 C 23.601562 13 23.816406 12.539062 23.882812 12.398438 L 23.996094 12.140625 L 2.53125 12.140625 Z M 2.574219 12.242188" stroke-linecap="round"/>
</g>
		<g transform="matrix(1 0 0 1 1.3034 7.5733)" id="surface1">
<path style="stroke: none; stroke-width: 1; stroke-dasharray: none; stroke-linecap: butt; stroke-dashoffset: 0; stroke-linejoin: miter; stroke-miterlimit: 4; is-custom-font: none; font-file-url: none; fill: rgb(255,255,255); fill-rule: nonzero; opacity: 1;" transform=" translate(-13.3034, -19.5733)" d="M 21.472656 16.199219 C 21.359375 16.246094 18.015625 18.25 17.640625 18.492188 C 17.628906 18.496094 17.648438 18.570312 17.671875 18.660156 C 17.699219 18.75 17.722656 18.933594 17.726562 19.070312 C 17.734375 19.28125 17.71875 19.335938 17.617188 19.4375 L 17.492188 19.5625 L 14.640625 19.78125 C 11.585938 20.015625 11.5625 20.015625 11.441406 19.789062 C 11.304688 19.53125 11.460938 19.195312 11.734375 19.148438 C 11.816406 19.132812 12.875 19.050781 14.085938 18.960938 C 16.992188 18.746094 16.796875 18.769531 16.757812 18.617188 C 16.660156 18.230469 16.179688 17.699219 15.742188 17.492188 C 15.191406 17.230469 15.121094 17.230469 13.050781 17.394531 C 10.554688 17.585938 10.269531 17.570312 9.109375 17.136719 C 8.296875 16.832031 7.890625 16.757812 7.078125 16.761719 C 5.914062 16.765625 4.925781 17.085938 4.027344 17.742188 L 3.796875 17.914062 L 3.820312 18.203125 C 3.839844 18.359375 3.917969 19.4375 4.007812 20.597656 C 4.097656 21.753906 4.175781 22.707031 4.179688 22.714844 C 4.191406 22.71875 4.367188 22.617188 4.585938 22.476562 C 5.082031 22.152344 5.441406 22.03125 5.976562 22 C 6.359375 21.980469 6.671875 22.023438 9.40625 22.496094 C 12.707031 23.066406 13.046875 23.101562 13.875 22.941406 C 14.300781 22.859375 14.949219 22.644531 15.3125 22.457031 C 15.449219 22.390625 17.203125 21.007812 19.21875 19.386719 C 22.710938 16.574219 22.875 16.433594 22.796875 16.359375 C 22.5625 16.132812 21.820312 16.046875 21.472656 16.199219 Z M 21.472656 16.199219" stroke-linecap="round"/>
</g>
		<g transform="matrix(1 0 0 1 -10.3155 8.2869)" id="surface1">
<path style="stroke: none; stroke-width: 1; stroke-dasharray: none; stroke-linecap: butt; stroke-dashoffset: 0; stroke-linejoin: miter; stroke-miterlimit: 4; is-custom-font: none; font-file-url: none; fill: rgb(255,255,255); fill-rule: nonzero; opacity: 1;" transform=" translate(-1.6845, -20.2869)" d="M 1.410156 16.667969 C 0.65625 16.730469 0.03125 16.78125 0.0234375 16.789062 C 0.0078125 16.808594 0.558594 23.960938 0.578125 23.984375 C 0.605469 24.015625 3.304688 23.796875 3.34375 23.765625 C 3.382812 23.726562 2.863281 16.636719 2.816406 16.589844 C 2.804688 16.574219 2.171875 16.613281 1.410156 16.667969 Z M 1.410156 16.667969" stroke-linecap="round"/>
</g>
</g>
</g>
<g transform="matrix(1 0 0 1 536.036 562.7706)" style="" id="661039">
		
<path xml:space="preserve" font-family="Lato" font-size="56" font-style="normal" font-weight="bold" style="stroke: none; stroke-width: 1; stroke-dasharray: none; stroke-linecap: butt; stroke-dashoffset: 0; stroke-linejoin: miter; stroke-miterlimit: 4; is-custom-font: none; font-file-url: none; fill: rgb(0,0,0); fill-rule: nonzero; opacity: 1; white-space: pre;" d="M-141.18 12.05L-141.18 12.05Q-138.63 12.05-136.74 11.59Q-134.85 11.12-133.14 10.31L-133.14 10.31L-133.14 2.95L-138.21 2.95Q-138.94 2.95-139.36 2.54Q-139.78 2.14-139.78 1.55L-139.78 1.55L-139.78-2.71L-126.31-2.71L-126.31 13.67Q-127.85 14.79-129.51 15.62Q-131.18 16.44-133.07 16.98Q-134.96 17.51-137.12 17.77Q-139.27 18.04-141.76 18.04L-141.76 18.04Q-146.19 18.04-149.91 16.50Q-153.64 14.96-156.35 12.22Q-159.07 9.47-160.59 5.66Q-162.12 1.86-162.12-2.65L-162.12-2.65Q-162.12-7.22-160.64-11.02Q-159.15-14.83-156.42-17.58Q-153.69-20.32-149.80-21.83Q-145.91-23.34-141.06-23.34L-141.06-23.34Q-136.11-23.34-132.48-21.87Q-128.86-20.40-126.34-18.05L-126.34-18.05L-128.52-14.64Q-129.16-13.60-130.23-13.60L-130.23-13.60Q-130.90-13.60-131.60-14.05L-131.60-14.05Q-132.50-14.58-133.43-15.11Q-134.37-15.64-135.51-16.04Q-136.64-16.43-138.05-16.68Q-139.47-16.93-141.32-16.93L-141.32-16.93Q-144.31-16.93-146.73-15.92Q-149.16-14.92-150.86-13.04Q-152.57-11.16-153.50-8.53Q-154.42-5.90-154.42-2.65L-154.42-2.65Q-154.42 0.85-153.44 3.58Q-152.46 6.31-150.70 8.18Q-148.93 10.06-146.50 11.05Q-144.06 12.05-141.18 12.05ZM-107.80-11.58L-107.80-11.58Q-105.08-11.58-102.80-10.72Q-100.52-9.85-98.87-8.18Q-97.22-6.52-96.29-4.09Q-95.37-1.67-95.37 1.44L-95.37 1.44Q-95.37 2.22-95.44 2.74Q-95.51 3.26-95.69 3.55Q-95.87 3.84-96.18 3.97Q-96.49 4.10-96.96 4.10L-96.96 4.10L-114.72 4.10Q-114.41 8.52-112.34 10.59Q-110.26 12.66-106.85 12.66L-106.85 12.66Q-105.17 12.66-103.95 12.27Q-102.73 11.88-101.82 11.40Q-100.91 10.93-100.23 10.54Q-99.54 10.14-98.90 10.14L-98.90 10.14Q-98.48 10.14-98.17 10.31Q-97.86 10.48-97.64 10.79L-97.64 10.79L-95.62 13.31Q-96.77 14.65-98.20 15.56Q-99.62 16.47-101.18 17.02Q-102.73 17.56-104.34 17.79Q-105.95 18.01-107.46 18.01L-107.46 18.01Q-110.46 18.01-113.04 17.02Q-115.61 16.02-117.52 14.08Q-119.42 12.13-120.51 9.26Q-121.60 6.39-121.60 2.61L-121.60 2.61Q-121.60-0.33-120.65-2.92Q-119.70-5.51-117.92-7.43Q-116.14-9.34-113.58-10.46Q-111.02-11.58-107.80-11.58ZM-107.66-6.63L-107.66-6.63Q-110.68-6.63-112.39-4.92Q-114.10-3.21-114.58-0.08L-114.58-0.08L-101.58-0.08Q-101.58-1.42-101.95-2.61Q-102.31-3.80-103.07-4.70Q-103.82-5.59-104.97-6.11Q-106.12-6.63-107.66-6.63ZM-71.12-8.03L-72.69-5.54Q-72.97-5.09-73.28-4.91Q-73.58-4.72-74.06-4.72L-74.06-4.72Q-74.56-4.72-75.14-5.00Q-75.71-5.28-76.47-5.63Q-77.22-5.98-78.19-6.26Q-79.16-6.54-80.47-6.54L-80.47-6.54Q-82.52-6.54-83.69-5.68Q-84.87-4.81-84.87-3.41L-84.87-3.41Q-84.87-2.48-84.27-1.85Q-83.66-1.22-82.67-0.75Q-81.68-0.27-80.42 0.11Q-79.16 0.48-77.84 0.93Q-76.52 1.38-75.26 1.95Q-74.00 2.53-73.01 3.41Q-72.02 4.29-71.41 5.52Q-70.81 6.76-70.81 8.49L-70.81 8.49Q-70.81 10.56-71.57 12.31Q-72.32 14.06-73.78 15.34Q-75.24 16.61-77.38 17.33Q-79.52 18.04-82.29 18.04L-82.29 18.04Q-83.78 18.04-85.19 17.77Q-86.60 17.51-87.91 17.03Q-89.21 16.56-90.31 15.91Q-91.42 15.27-92.26 14.51L-92.26 14.51L-90.66 11.88Q-90.36 11.40-89.94 11.15Q-89.52 10.90-88.87 10.90L-88.87 10.90Q-88.23 10.90-87.65 11.26Q-87.08 11.63-86.32 12.05Q-85.57 12.47-84.55 12.83Q-83.52 13.20-81.96 13.20L-81.96 13.20Q-80.72 13.20-79.84 12.90Q-78.96 12.61-78.39 12.13Q-77.81 11.66-77.55 11.03Q-77.28 10.40-77.28 9.72L-77.28 9.72Q-77.28 8.72-77.88 8.07Q-78.48 7.43-79.48 6.95Q-80.47 6.48-81.75 6.10Q-83.02 5.72-84.35 5.27Q-85.68 4.82-86.95 4.22Q-88.23 3.62-89.22 2.70Q-90.22 1.77-90.82 0.43Q-91.42-0.92-91.42-2.82L-91.42-2.82Q-91.42-4.58-90.72-6.18Q-90.02-7.78-88.66-8.97Q-87.30-10.16-85.27-10.87Q-83.24-11.58-80.58-11.58L-80.58-11.58Q-77.62-11.58-75.18-10.60Q-72.74-9.62-71.12-8.03L-71.12-8.03ZM-55.83 18.04L-55.83 18.04Q-59.56 18.04-61.57 15.93Q-63.59 13.81-63.59 10.09L-63.59 10.09L-63.59-5.96L-66.50-5.96Q-67.06-5.96-67.47-6.32Q-67.87-6.68-67.87-7.41L-67.87-7.41L-67.87-10.16L-63.25-10.91L-61.80-18.75Q-61.68-19.31-61.28-19.62Q-60.87-19.93-60.26-19.93L-60.26-19.93L-56.67-19.93L-56.67-10.88L-49.11-10.88L-49.11-5.96L-56.67-5.96L-56.67 9.61Q-56.67 10.96-56 11.71Q-55.33 12.47-54.21 12.47L-54.21 12.47Q-53.56 12.47-53.13 12.31Q-52.70 12.16-52.37 11.99Q-52.05 11.82-51.80 11.67Q-51.55 11.52-51.30 11.52L-51.30 11.52Q-50.99 11.52-50.79 11.67Q-50.60 11.82-50.37 12.13L-50.37 12.13L-48.30 15.49Q-49.81 16.75-51.77 17.40Q-53.73 18.04-55.83 18.04ZM-43.15-11.14L-36.23-11.14L-36.23 17.59L-43.15 17.59L-43.15-11.14ZM-35.20-19.51L-35.20-19.51Q-35.20-18.61-35.56-17.83Q-35.92-17.04-36.53-16.46Q-37.13-15.87-37.94-15.52Q-38.75-15.17-39.68-15.17L-39.68-15.17Q-40.57-15.17-41.37-15.52Q-42.17-15.87-42.76-16.46Q-43.34-17.04-43.69-17.83Q-44.04-18.61-44.04-19.51L-44.04-19.51Q-44.04-20.43-43.69-21.24Q-43.34-22.06-42.76-22.64Q-42.17-23.23-41.37-23.58Q-40.57-23.93-39.68-23.93L-39.68-23.93Q-38.75-23.93-37.94-23.58Q-37.13-23.23-36.53-22.64Q-35.92-22.06-35.56-21.24Q-35.20-20.43-35.20-19.51ZM-16.16-11.58L-16.16-11.58Q-12.94-11.58-10.32-10.55Q-7.70-9.51-5.85-7.61Q-4.00-5.70-3.00-2.96Q-1.99-0.22-1.99 3.17L-1.99 3.17Q-1.99 6.59-3.00 9.33Q-4.00 12.08-5.85 14.01Q-7.70 15.94-10.32 16.98Q-12.94 18.01-16.16 18.01L-16.16 18.01Q-19.38 18.01-22.01 16.98Q-24.64 15.94-26.50 14.01Q-28.36 12.08-29.39 9.33Q-30.41 6.59-30.41 3.17L-30.41 3.17Q-30.41-0.22-29.39-2.96Q-28.36-5.70-26.50-7.61Q-24.64-9.51-22.01-10.55Q-19.38-11.58-16.16-11.58ZM-16.16 12.69L-16.16 12.69Q-12.57 12.69-10.85 10.28Q-9.13 7.88-9.13 3.23L-9.13 3.23Q-9.13-1.42-10.85-3.86Q-12.57-6.29-16.16-6.29L-16.16-6.29Q-19.80-6.29-21.53-3.84Q-23.27-1.39-23.27 3.23L-23.27 3.23Q-23.27 7.85-21.53 10.27Q-19.80 12.69-16.16 12.69ZM10.33 17.59L3.42 17.59L3.42-11.14L7.64-11.14Q8.99-11.14 9.41-9.88L9.41-9.88L9.88-7.61Q10.75-8.50 11.72-9.23Q12.68-9.96 13.76-10.49Q14.84-11.02 16.07-11.30Q17.30-11.58 18.76-11.58L18.76-11.58Q21.11-11.58 22.93-10.79Q24.75-9.99 25.97-8.55Q27.19-7.10 27.82-5.10Q28.45-3.10 28.45-0.69L28.45-0.69L28.45 17.59L21.53 17.59L21.53-0.69Q21.53-3.32 20.31-4.77Q19.10-6.21 16.66-6.21L16.66-6.21Q14.87-6.21 13.30-5.40Q11.73-4.58 10.33-3.18L10.33-3.18L10.33 17.59ZM42.17 17.59L35.25 17.59L35.25-11.14L39.48-11.14Q40.82-11.14 41.24-9.88L41.24-9.88L41.72-7.61Q42.59-8.50 43.55-9.23Q44.52-9.96 45.60-10.49Q46.68-11.02 47.91-11.30Q49.14-11.58 50.60-11.58L50.60-11.58Q52.95-11.58 54.77-10.79Q56.59-9.99 57.81-8.55Q59.02-7.10 59.65-5.10Q60.28-3.10 60.28-0.69L60.28-0.69L60.28 17.59L53.37 17.59L53.37-0.69Q53.37-3.32 52.15-4.77Q50.93-6.21 48.50-6.21L48.50-6.21Q46.70-6.21 45.14-5.40Q43.57-4.58 42.17-3.18L42.17-3.18L42.17 17.59ZM89.60-0.55L89.60 17.59L86.49 17.59Q85.51 17.59 84.95 17.30Q84.39 17.00 84.11 16.11L84.11 16.11L83.50 14.06Q82.40 15.04 81.35 15.79Q80.30 16.53 79.18 17.03Q78.06 17.54 76.80 17.79Q75.54 18.04 74.00 18.04L74.00 18.04Q72.18 18.04 70.64 17.55Q69.10 17.06 68.00 16.08Q66.89 15.10 66.28 13.64Q65.66 12.19 65.66 10.26L65.66 10.26Q65.66 8.63 66.51 7.05Q67.37 5.47 69.36 4.19Q71.34 2.92 74.65 2.08Q77.95 1.24 82.85 1.13L82.85 1.13L82.85-0.55Q82.85-3.44 81.63-4.82Q80.42-6.21 78.09-6.21L78.09-6.21Q76.41-6.21 75.29-5.82Q74.17-5.42 73.35-4.93Q72.52-4.44 71.82-4.05Q71.12-3.66 70.28-3.66L70.28-3.66Q69.58-3.66 69.08-4.02Q68.57-4.39 68.26-4.92L68.26-4.92L67.00-7.13Q71.96-11.67 78.96-11.67L78.96-11.67Q81.48-11.67 83.45-10.84Q85.43-10.02 86.80-8.55Q88.17-7.08 88.89-5.03Q89.60-2.99 89.60-0.55L89.60-0.55ZM76.16 13.28L76.16 13.28Q77.22 13.28 78.12 13.08Q79.02 12.89 79.81 12.50Q80.61 12.10 81.35 11.53Q82.10 10.96 82.85 10.17L82.85 10.17L82.85 5.33Q79.83 5.47 77.80 5.85Q75.77 6.22 74.54 6.81Q73.30 7.40 72.79 8.18Q72.27 8.97 72.27 9.89L72.27 9.89Q72.27 11.71 73.35 12.50Q74.42 13.28 76.16 13.28ZM103.32 17.59L96.40 17.59L96.40-11.14L100.46-11.14Q101.53-11.14 101.95-10.74Q102.37-10.35 102.51-9.40L102.51-9.40L102.93-5.93Q104.47-8.59 106.54-10.13Q108.61-11.67 111.19-11.67L111.19-11.67Q113.32-11.67 114.72-10.69L114.72-10.69L113.82-5.51Q113.74-5.00 113.46-4.79Q113.18-4.58 112.70-4.58L112.70-4.58Q112.28-4.58 111.55-4.78Q110.82-4.98 109.62-4.98L109.62-4.98Q107.46-4.98 105.92-3.79Q104.38-2.60 103.32-0.30L103.32-0.30L103.32 17.59ZM113.82 13.78L113.82 13.78Q113.82 12.92 114.14 12.13Q114.46 11.35 115.04 10.79Q115.61 10.23 116.40 9.89Q117.18 9.56 118.08 9.56L118.08 9.56Q118.94 9.56 119.73 9.89Q120.51 10.23 121.07 10.79Q121.63 11.35 121.97 12.13Q122.30 12.92 122.30 13.78L122.30 13.78Q122.30 14.68 121.97 15.45Q121.63 16.22 121.07 16.78Q120.51 17.34 119.73 17.66Q118.94 17.98 118.08 17.98L118.08 17.98Q117.18 17.98 116.40 17.66Q115.61 17.34 115.04 16.78Q114.46 16.22 114.14 15.45Q113.82 14.68 113.82 13.78ZM120.01-22.90L151.96-22.90L151.96-16.71L139.78-16.71L139.78 17.59L132.24 17.59L132.24-16.71L120.01-16.71L120.01-22.90ZM165.23-22.90L165.23 17.59L157.67 17.59L157.67-22.90L165.23-22.90Z"/></g>
</svg>