<?xml version="1.0" encoding="UTF-8"?>
<svg xmlns="http://www.w3.org/2000/svg" xmlns:xlink="http://www.w3.org/1999/xlink" width="48px" height="48px" viewBox="0 0 92 36" version="1.1">
<g id="surface1">
<rect x="0" y="0" width="92" height="36" style="fill:rgb(30.588235%,39.607843%,37.647059%);fill-opacity:1;stroke:none;"/>
<path style=" stroke:none;fill-rule:nonzero;fill:rgb(100%,100%,100%);fill-opacity:1;" d="M 48.519531 1.753906 C 47.210938 1.929688 46.273438 2.277344 45.671875 2.796875 C 45.414062 3.03125 45.347656 3.222656 45.347656 3.925781 L 45.347656 4.777344 L 46.789062 4.730469 C 48.476562 4.667969 52.628906 4.671875 53.910156 4.730469 L 54.820312 4.773438 L 54.820312 3.976562 C 54.820312 3.332031 54.753906 3.105469 54.496094 2.828125 C 53.625 1.925781 50.847656 1.421875 48.519531 1.753906 Z M 48.519531 1.753906 "/>
<path style=" stroke:none;fill-rule:nonzero;fill:rgb(100%,100%,100%);fill-opacity:1;" d="M 45.851562 5.957031 C 37.355469 6.410156 30.128906 7.941406 24.765625 10.429688 C 21.144531 12.113281 18.734375 14.351562 18.296875 16.460938 L 18.175781 16.976562 L 82.617188 16.976562 L 82.507812 16.445312 C 81.449219 11.617188 71.414062 7.363281 58.347656 6.207031 C 54.414062 5.855469 49.59375 5.757812 45.851562 5.957031 Z M 45.851562 5.957031 "/>
<path style=" stroke:none;fill-rule:nonzero;fill:rgb(100%,100%,100%);fill-opacity:1;" d="M 13.152344 18.332031 C 13.234375 18.414062 13.996094 19.050781 14.855469 19.746094 C 16.257812 20.882812 16.515625 21.046875 17.441406 21.414062 C 18.054688 21.648438 18.910156 21.90625 19.507812 22.023438 C 21.605469 22.4375 19.605469 22.410156 50.410156 22.410156 C 81.3125 22.410156 79.269531 22.4375 81.351562 22.003906 C 81.910156 21.898438 82.808594 21.621094 83.378906 21.398438 C 84.277344 21.046875 84.5625 20.855469 85.707031 19.945312 C 86.429688 19.363281 87.179688 18.734375 87.410156 18.542969 L 87.804688 18.191406 L 13.003906 18.191406 Z M 13.152344 18.332031 "/>
<path style=" stroke:none;fill-rule:nonzero;fill:rgb(100%,100%,100%);fill-opacity:1;" d="M 79.011719 23.726562 C 78.617188 23.789062 66.964844 26.523438 65.65625 26.851562 C 65.617188 26.859375 65.683594 26.960938 65.765625 27.082031 C 65.859375 27.203125 65.941406 27.453125 65.957031 27.640625 C 65.984375 27.929688 65.929688 28.003906 65.574219 28.140625 L 65.140625 28.3125 L 55.203125 28.609375 C 44.558594 28.929688 44.476562 28.929688 44.054688 28.621094 C 43.578125 28.269531 44.121094 27.8125 45.074219 27.746094 C 45.359375 27.726562 49.050781 27.613281 53.269531 27.492188 C 63.398438 27.199219 62.714844 27.230469 62.582031 27.023438 C 62.238281 26.496094 60.566406 25.773438 59.039062 25.488281 C 57.121094 25.132812 56.875 25.132812 49.660156 25.355469 C 40.964844 25.617188 39.96875 25.597656 35.925781 25.003906 C 33.09375 24.589844 31.679688 24.488281 28.847656 24.492188 C 24.792969 24.5 21.347656 24.933594 18.214844 25.832031 L 17.414062 26.066406 L 17.496094 26.457031 C 17.5625 26.671875 17.835938 28.140625 18.148438 29.722656 C 18.460938 31.300781 18.734375 32.601562 18.746094 32.609375 C 18.789062 32.617188 19.402344 32.476562 20.164062 32.285156 C 21.890625 31.84375 23.144531 31.679688 25.007812 31.636719 C 26.34375 31.609375 27.433594 31.667969 36.960938 32.3125 C 48.464844 33.089844 49.648438 33.136719 52.535156 32.921875 C 54.019531 32.808594 56.277344 32.515625 57.542969 32.257812 C 58.019531 32.167969 64.132812 30.285156 71.15625 28.074219 C 83.324219 24.238281 83.898438 24.046875 83.625 23.945312 C 82.808594 23.636719 80.222656 23.519531 79.011719 23.726562 Z M 79.011719 23.726562 "/>
<path style=" stroke:none;fill-rule:nonzero;fill:rgb(100%,100%,100%);fill-opacity:1;" d="M 9.097656 24.367188 C 6.46875 24.449219 4.289062 24.519531 4.261719 24.53125 C 4.210938 24.558594 6.128906 34.308594 6.195312 34.34375 C 6.292969 34.386719 15.699219 34.085938 15.835938 34.042969 C 15.96875 33.992188 14.160156 24.324219 13.996094 24.257812 C 13.957031 24.238281 11.75 24.289062 9.097656 24.367188 Z M 9.097656 24.367188 "/>
<path style=" stroke:none;fill-rule:nonzero;fill:rgb(0%,0%,0%);fill-opacity:1;" d="M 36.328125 20.695312 C 36.484375 20.695312 36.621094 20.6875 36.734375 20.675781 C 36.851562 20.664062 36.960938 20.648438 37.066406 20.632812 L 37.066406 20.367188 L 36.601562 20.367188 C 36.554688 20.367188 36.519531 20.359375 36.496094 20.351562 C 36.46875 20.339844 36.457031 20.328125 36.457031 20.316406 L 36.457031 20.164062 L 37.695312 20.164062 L 37.695312 20.75 C 37.601562 20.777344 37.503906 20.800781 37.402344 20.820312 C 37.296875 20.839844 37.1875 20.859375 37.074219 20.871094 C 36.957031 20.882812 36.832031 20.894531 36.699219 20.898438 C 36.570312 20.90625 36.425781 20.910156 36.273438 20.910156 C 36 20.910156 35.75 20.890625 35.523438 20.855469 C 35.292969 20.816406 35.097656 20.765625 34.929688 20.699219 C 34.765625 20.632812 34.632812 20.554688 34.542969 20.464844 C 34.445312 20.371094 34.398438 20.273438 34.398438 20.164062 C 34.398438 20.054688 34.445312 19.953125 34.535156 19.863281 C 34.628906 19.773438 34.757812 19.691406 34.925781 19.625 C 35.09375 19.5625 35.296875 19.511719 35.535156 19.472656 C 35.773438 19.4375 36.039062 19.417969 36.335938 19.417969 C 36.640625 19.417969 36.90625 19.4375 37.128906 19.472656 C 37.347656 19.507812 37.539062 19.554688 37.691406 19.609375 L 37.492188 19.734375 C 37.453125 19.757812 37.398438 19.769531 37.335938 19.769531 C 37.292969 19.769531 37.25 19.765625 37.207031 19.753906 C 37.152344 19.742188 37.097656 19.726562 37.039062 19.714844 C 36.980469 19.703125 36.917969 19.691406 36.847656 19.683594 C 36.777344 19.671875 36.703125 19.664062 36.613281 19.660156 C 36.527344 19.652344 36.425781 19.648438 36.3125 19.648438 C 36.128906 19.648438 35.964844 19.664062 35.816406 19.6875 C 35.667969 19.710938 35.539062 19.746094 35.4375 19.789062 C 35.332031 19.835938 35.25 19.890625 35.191406 19.953125 C 35.136719 20.015625 35.109375 20.085938 35.109375 20.164062 C 35.109375 20.25 35.140625 20.324219 35.199219 20.386719 C 35.257812 20.453125 35.34375 20.507812 35.449219 20.554688 C 35.558594 20.597656 35.6875 20.632812 35.835938 20.65625 C 35.988281 20.679688 36.148438 20.695312 36.328125 20.695312 Z M 39.398438 19.84375 C 39.566406 19.84375 39.71875 19.851562 39.859375 19.875 C 39.996094 19.894531 40.117188 19.925781 40.21875 19.964844 C 40.320312 20.003906 40.398438 20.054688 40.457031 20.113281 C 40.511719 20.171875 40.542969 20.238281 40.542969 20.3125 C 40.542969 20.332031 40.539062 20.347656 40.535156 20.359375 C 40.53125 20.371094 40.523438 20.378906 40.511719 20.386719 C 40.5 20.394531 40.484375 20.398438 40.464844 20.402344 C 40.449219 20.40625 40.421875 20.40625 40.394531 20.40625 L 38.761719 20.40625 C 38.78125 20.511719 38.851562 20.589844 38.980469 20.640625 C 39.109375 20.691406 39.277344 20.714844 39.484375 20.714844 C 39.589844 20.714844 39.675781 20.710938 39.75 20.703125 C 39.828125 20.691406 39.890625 20.683594 39.949219 20.671875 C 40.003906 20.660156 40.050781 20.648438 40.09375 20.640625 C 40.136719 20.628906 40.175781 20.625 40.214844 20.625 C 40.242188 20.625 40.265625 20.625 40.285156 20.632812 C 40.300781 20.636719 40.320312 20.640625 40.332031 20.648438 L 40.519531 20.738281 C 40.449219 20.769531 40.367188 20.796875 40.28125 20.820312 C 40.195312 20.839844 40.101562 20.859375 40.007812 20.871094 C 39.910156 20.886719 39.816406 20.894531 39.714844 20.898438 C 39.617188 20.90625 39.523438 20.90625 39.429688 20.90625 C 39.246094 20.90625 39.074219 20.894531 38.914062 20.871094 C 38.757812 20.847656 38.621094 20.8125 38.503906 20.765625 C 38.386719 20.71875 38.296875 20.660156 38.226562 20.59375 C 38.160156 20.523438 38.128906 20.445312 38.128906 20.355469 C 38.128906 20.28125 38.15625 20.214844 38.214844 20.15625 C 38.273438 20.09375 38.359375 20.039062 38.464844 19.992188 C 38.574219 19.945312 38.707031 19.910156 38.867188 19.882812 C 39.023438 19.855469 39.199219 19.84375 39.398438 19.84375 Z M 39.410156 20.019531 C 39.226562 20.019531 39.082031 20.042969 38.976562 20.082031 C 38.871094 20.125 38.804688 20.183594 38.773438 20.257812 L 39.96875 20.257812 C 39.96875 20.226562 39.957031 20.195312 39.9375 20.164062 C 39.914062 20.136719 39.878906 20.113281 39.832031 20.089844 C 39.785156 20.070312 39.730469 20.050781 39.65625 20.039062 C 39.585938 20.027344 39.503906 20.019531 39.410156 20.019531 Z M 42.773438 19.96875 L 42.628906 20.058594 C 42.609375 20.070312 42.59375 20.078125 42.574219 20.082031 C 42.554688 20.085938 42.53125 20.089844 42.5 20.089844 C 42.472656 20.089844 42.4375 20.085938 42.402344 20.078125 C 42.367188 20.074219 42.328125 20.066406 42.28125 20.058594 C 42.234375 20.046875 42.179688 20.042969 42.121094 20.035156 C 42.0625 20.027344 41.992188 20.023438 41.910156 20.023438 C 41.785156 20.023438 41.6875 20.035156 41.617188 20.054688 C 41.542969 20.074219 41.507812 20.101562 41.507812 20.136719 C 41.507812 20.160156 41.527344 20.179688 41.5625 20.191406 C 41.601562 20.207031 41.648438 20.222656 41.710938 20.234375 C 41.769531 20.246094 41.839844 20.253906 41.917969 20.265625 C 41.992188 20.273438 42.074219 20.28125 42.152344 20.292969 C 42.234375 20.304688 42.3125 20.316406 42.390625 20.328125 C 42.46875 20.34375 42.539062 20.363281 42.597656 20.382812 C 42.660156 20.402344 42.707031 20.429688 42.746094 20.457031 C 42.78125 20.488281 42.800781 20.523438 42.800781 20.566406 C 42.800781 20.613281 42.777344 20.660156 42.730469 20.703125 C 42.683594 20.746094 42.617188 20.78125 42.527344 20.8125 C 42.4375 20.84375 42.328125 20.867188 42.195312 20.882812 C 42.066406 20.902344 41.914062 20.910156 41.746094 20.910156 C 41.652344 20.910156 41.5625 20.90625 41.476562 20.898438 C 41.390625 20.894531 41.308594 20.882812 41.226562 20.871094 C 41.148438 20.863281 41.074219 20.847656 41.007812 20.832031 C 40.9375 20.816406 40.878906 20.800781 40.828125 20.78125 L 40.972656 20.6875 C 40.992188 20.675781 41.015625 20.667969 41.039062 20.660156 C 41.066406 20.65625 41.097656 20.652344 41.140625 20.652344 C 41.179688 20.652344 41.214844 20.65625 41.25 20.664062 C 41.285156 20.675781 41.328125 20.683594 41.375 20.695312 C 41.417969 20.703125 41.472656 20.714844 41.535156 20.722656 C 41.601562 20.730469 41.679688 20.734375 41.773438 20.734375 C 41.851562 20.734375 41.917969 20.730469 41.96875 20.722656 C 42.023438 20.71875 42.070312 20.707031 42.101562 20.695312 C 42.140625 20.683594 42.164062 20.671875 42.179688 20.65625 C 42.199219 20.640625 42.207031 20.625 42.207031 20.609375 C 42.207031 20.585938 42.1875 20.566406 42.148438 20.550781 C 42.113281 20.535156 42.066406 20.519531 42.003906 20.511719 C 41.941406 20.5 41.871094 20.488281 41.792969 20.480469 C 41.714844 20.46875 41.636719 20.460938 41.554688 20.449219 C 41.472656 20.4375 41.394531 20.425781 41.316406 20.410156 C 41.238281 20.398438 41.167969 20.378906 41.105469 20.355469 C 41.046875 20.335938 40.996094 20.308594 40.960938 20.273438 C 40.921875 20.242188 40.90625 20.203125 40.90625 20.160156 C 40.90625 20.117188 40.925781 20.074219 40.96875 20.039062 C 41.011719 20 41.074219 19.964844 41.160156 19.9375 C 41.242188 19.910156 41.347656 19.886719 41.46875 19.867188 C 41.59375 19.851562 41.738281 19.84375 41.902344 19.84375 C 42.082031 19.84375 42.25 19.855469 42.398438 19.878906 C 42.546875 19.902344 42.671875 19.933594 42.773438 19.96875 Z M 44.179688 20.910156 C 43.949219 20.910156 43.773438 20.882812 43.652344 20.832031 C 43.527344 20.78125 43.464844 20.710938 43.464844 20.621094 L 43.464844 20.046875 L 43.199219 20.046875 C 43.164062 20.046875 43.132812 20.039062 43.109375 20.03125 C 43.082031 20.023438 43.070312 20.011719 43.070312 19.992188 L 43.070312 19.894531 L 43.496094 19.867188 L 43.628906 19.585938 C 43.636719 19.570312 43.652344 19.5625 43.675781 19.554688 C 43.703125 19.546875 43.734375 19.542969 43.769531 19.542969 L 44.101562 19.542969 L 44.101562 19.867188 L 44.796875 19.867188 L 44.796875 20.046875 L 44.101562 20.046875 L 44.101562 20.605469 C 44.101562 20.636719 44.121094 20.664062 44.164062 20.679688 C 44.203125 20.699219 44.257812 20.707031 44.328125 20.707031 C 44.367188 20.707031 44.402344 20.707031 44.425781 20.703125 C 44.453125 20.699219 44.476562 20.695312 44.496094 20.691406 C 44.515625 20.6875 44.535156 20.683594 44.550781 20.679688 C 44.566406 20.675781 44.582031 20.675781 44.597656 20.675781 C 44.613281 20.675781 44.628906 20.675781 44.644531 20.679688 C 44.652344 20.683594 44.667969 20.6875 44.679688 20.695312 L 44.871094 20.816406 C 44.777344 20.847656 44.671875 20.871094 44.550781 20.886719 C 44.433594 20.902344 44.308594 20.910156 44.179688 20.910156 Z M 45.34375 19.859375 L 45.980469 19.859375 L 45.980469 20.894531 L 45.34375 20.894531 Z M 46.078125 19.558594 C 46.078125 19.578125 46.066406 19.597656 46.042969 19.617188 C 46.023438 19.636719 45.992188 19.652344 45.953125 19.667969 C 45.917969 19.679688 45.875 19.691406 45.824219 19.699219 C 45.773438 19.710938 45.722656 19.714844 45.664062 19.714844 C 45.609375 19.714844 45.558594 19.710938 45.507812 19.699219 C 45.460938 19.691406 45.417969 19.679688 45.382812 19.667969 C 45.347656 19.652344 45.316406 19.636719 45.296875 19.617188 C 45.273438 19.597656 45.261719 19.578125 45.261719 19.558594 C 45.261719 19.535156 45.273438 19.515625 45.296875 19.496094 C 45.316406 19.476562 45.347656 19.457031 45.382812 19.445312 C 45.417969 19.429688 45.460938 19.417969 45.507812 19.410156 C 45.558594 19.402344 45.609375 19.398438 45.664062 19.398438 C 45.722656 19.398438 45.773438 19.402344 45.824219 19.410156 C 45.875 19.417969 45.917969 19.429688 45.953125 19.445312 C 45.992188 19.457031 46.023438 19.476562 46.042969 19.496094 C 46.066406 19.515625 46.078125 19.535156 46.078125 19.558594 Z M 47.828125 19.84375 C 48.027344 19.84375 48.207031 19.855469 48.367188 19.878906 C 48.527344 19.90625 48.664062 19.941406 48.777344 19.984375 C 48.890625 20.03125 48.976562 20.085938 49.039062 20.152344 C 49.101562 20.21875 49.132812 20.292969 49.132812 20.375 C 49.132812 20.457031 49.101562 20.53125 49.039062 20.59375 C 48.976562 20.660156 48.890625 20.71875 48.777344 20.765625 C 48.664062 20.808594 48.527344 20.847656 48.367188 20.871094 C 48.207031 20.894531 48.027344 20.90625 47.828125 20.90625 C 47.632812 20.90625 47.453125 20.894531 47.289062 20.871094 C 47.128906 20.847656 46.992188 20.808594 46.878906 20.765625 C 46.761719 20.71875 46.675781 20.660156 46.613281 20.59375 C 46.550781 20.53125 46.519531 20.457031 46.519531 20.375 C 46.519531 20.292969 46.550781 20.21875 46.613281 20.152344 C 46.675781 20.085938 46.761719 20.03125 46.878906 19.984375 C 46.992188 19.941406 47.128906 19.90625 47.289062 19.878906 C 47.453125 19.855469 47.632812 19.84375 47.828125 19.84375 Z M 47.828125 20.714844 C 48.046875 20.714844 48.210938 20.6875 48.316406 20.628906 C 48.421875 20.570312 48.476562 20.488281 48.476562 20.375 C 48.476562 20.265625 48.421875 20.179688 48.316406 20.121094 C 48.210938 20.0625 48.046875 20.035156 47.828125 20.035156 C 47.605469 20.035156 47.441406 20.0625 47.335938 20.121094 C 47.226562 20.179688 47.175781 20.265625 47.175781 20.375 C 47.175781 20.488281 47.226562 20.570312 47.335938 20.628906 C 47.441406 20.6875 47.605469 20.714844 47.828125 20.714844 Z M 50.265625 20.894531 L 49.628906 20.894531 L 49.628906 19.859375 L 50.019531 19.859375 C 50.101562 19.859375 50.15625 19.875 50.179688 19.902344 L 50.222656 19.984375 C 50.277344 19.964844 50.335938 19.945312 50.394531 19.925781 C 50.453125 19.910156 50.515625 19.894531 50.582031 19.882812 C 50.648438 19.871094 50.71875 19.859375 50.792969 19.851562 C 50.871094 19.847656 50.953125 19.84375 51.042969 19.84375 C 51.183594 19.84375 51.3125 19.851562 51.425781 19.871094 C 51.535156 19.890625 51.628906 19.917969 51.703125 19.953125 C 51.78125 19.988281 51.835938 20.027344 51.875 20.074219 C 51.914062 20.125 51.933594 20.175781 51.933594 20.234375 L 51.933594 20.894531 L 51.296875 20.894531 L 51.296875 20.234375 C 51.296875 20.171875 51.257812 20.121094 51.183594 20.089844 C 51.109375 20.054688 50.996094 20.035156 50.847656 20.035156 C 50.738281 20.035156 50.636719 20.046875 50.539062 20.066406 C 50.441406 20.085938 50.351562 20.113281 50.265625 20.144531 Z M 53.195312 20.894531 L 52.558594 20.894531 L 52.558594 19.859375 L 52.949219 19.859375 C 53.03125 19.859375 53.082031 19.875 53.109375 19.902344 L 53.152344 19.984375 C 53.207031 19.964844 53.261719 19.945312 53.320312 19.925781 C 53.382812 19.910156 53.445312 19.894531 53.511719 19.882812 C 53.578125 19.871094 53.648438 19.859375 53.722656 19.851562 C 53.796875 19.847656 53.882812 19.84375 53.96875 19.84375 C 54.113281 19.84375 54.242188 19.851562 54.355469 19.871094 C 54.464844 19.890625 54.558594 19.917969 54.632812 19.953125 C 54.707031 19.988281 54.765625 20.027344 54.804688 20.074219 C 54.839844 20.125 54.859375 20.175781 54.859375 20.234375 L 54.859375 20.894531 L 54.226562 20.894531 L 54.226562 20.234375 C 54.226562 20.171875 54.1875 20.121094 54.113281 20.089844 C 54.039062 20.054688 53.925781 20.035156 53.777344 20.035156 C 53.667969 20.035156 53.5625 20.046875 53.46875 20.066406 C 53.371094 20.085938 53.28125 20.113281 53.195312 20.144531 Z M 57.558594 20.238281 L 57.558594 20.894531 L 57.273438 20.894531 C 57.210938 20.894531 57.164062 20.890625 57.128906 20.882812 C 57.097656 20.875 57.070312 20.859375 57.054688 20.839844 L 56.996094 20.765625 C 56.929688 20.789062 56.863281 20.808594 56.800781 20.828125 C 56.734375 20.847656 56.667969 20.859375 56.601562 20.871094 C 56.53125 20.886719 56.457031 20.894531 56.382812 20.898438 C 56.304688 20.90625 56.21875 20.910156 56.125 20.910156 C 56.011719 20.910156 55.910156 20.902344 55.8125 20.890625 C 55.71875 20.878906 55.640625 20.863281 55.570312 20.839844 C 55.503906 20.816406 55.449219 20.785156 55.414062 20.75 C 55.375 20.714844 55.355469 20.675781 55.355469 20.628906 C 55.355469 20.589844 55.382812 20.550781 55.433594 20.511719 C 55.488281 20.476562 55.574219 20.441406 55.695312 20.410156 C 55.816406 20.378906 55.980469 20.355469 56.183594 20.335938 C 56.386719 20.316406 56.636719 20.304688 56.9375 20.300781 L 56.9375 20.238281 C 56.9375 20.171875 56.898438 20.121094 56.824219 20.085938 C 56.75 20.054688 56.640625 20.035156 56.5 20.035156 C 56.398438 20.035156 56.3125 20.039062 56.242188 20.050781 C 56.171875 20.058594 56.113281 20.070312 56.0625 20.082031 C 56.011719 20.09375 55.964844 20.105469 55.921875 20.113281 C 55.878906 20.125 55.832031 20.128906 55.78125 20.128906 C 55.738281 20.128906 55.703125 20.125 55.671875 20.113281 C 55.640625 20.105469 55.613281 20.09375 55.59375 20.082031 L 55.480469 20.003906 C 55.785156 19.894531 56.148438 19.839844 56.578125 19.839844 C 56.734375 19.839844 56.871094 19.847656 56.992188 19.871094 C 57.113281 19.890625 57.21875 19.917969 57.300781 19.953125 C 57.386719 19.988281 57.449219 20.03125 57.492188 20.078125 C 57.535156 20.128906 57.558594 20.179688 57.558594 20.238281 Z M 56.320312 20.738281 C 56.386719 20.738281 56.445312 20.734375 56.503906 20.730469 C 56.558594 20.726562 56.609375 20.71875 56.65625 20.710938 C 56.707031 20.699219 56.753906 20.6875 56.800781 20.675781 C 56.84375 20.660156 56.890625 20.644531 56.9375 20.625 L 56.9375 20.453125 C 56.753906 20.453125 56.597656 20.460938 56.472656 20.46875 C 56.347656 20.480469 56.25 20.492188 56.171875 20.503906 C 56.097656 20.519531 56.042969 20.535156 56.011719 20.554688 C 55.980469 20.574219 55.964844 20.59375 55.964844 20.617188 C 55.964844 20.660156 55.996094 20.691406 56.0625 20.710938 C 56.128906 20.726562 56.214844 20.738281 56.320312 20.738281 Z M 58.820312 20.894531 L 58.183594 20.894531 L 58.183594 19.859375 L 58.558594 19.859375 C 58.625 19.859375 58.667969 19.863281 58.695312 19.875 C 58.71875 19.882812 58.738281 19.898438 58.746094 19.921875 L 58.785156 20.046875 C 58.878906 19.980469 58.988281 19.933594 59.117188 19.894531 C 59.242188 19.859375 59.386719 19.839844 59.542969 19.839844 C 59.675781 19.839844 59.785156 19.851562 59.871094 19.875 L 59.785156 20.0625 C 59.78125 20.074219 59.769531 20.082031 59.753906 20.085938 C 59.738281 20.09375 59.714844 20.09375 59.683594 20.09375 C 59.65625 20.09375 59.621094 20.09375 59.578125 20.085938 C 59.53125 20.082031 59.472656 20.082031 59.398438 20.082031 C 59.269531 20.082031 59.15625 20.09375 59.058594 20.125 C 58.964844 20.152344 58.886719 20.195312 58.820312 20.25 Z M 59.785156 20.753906 C 59.785156 20.734375 59.796875 20.714844 59.816406 20.695312 C 59.835938 20.675781 59.863281 20.660156 59.898438 20.648438 C 59.933594 20.632812 59.976562 20.625 60.023438 20.617188 C 60.070312 20.609375 60.125 20.605469 60.179688 20.605469 C 60.230469 20.605469 60.28125 20.609375 60.332031 20.617188 C 60.378906 20.625 60.417969 20.632812 60.453125 20.648438 C 60.488281 20.660156 60.515625 20.675781 60.535156 20.695312 C 60.558594 20.714844 60.566406 20.734375 60.566406 20.753906 C 60.566406 20.777344 60.558594 20.796875 60.535156 20.816406 C 60.515625 20.835938 60.488281 20.851562 60.453125 20.863281 C 60.417969 20.878906 60.378906 20.886719 60.332031 20.894531 C 60.28125 20.902344 60.230469 20.90625 60.179688 20.90625 C 60.125 20.90625 60.070312 20.902344 60.023438 20.894531 C 59.976562 20.886719 59.933594 20.878906 59.898438 20.863281 C 59.863281 20.851562 59.835938 20.835938 59.816406 20.816406 C 59.796875 20.796875 59.785156 20.777344 59.785156 20.753906 Z M 60.355469 19.433594 L 63.296875 19.433594 L 63.296875 19.65625 L 62.175781 19.65625 L 62.175781 20.894531 L 61.480469 20.894531 L 61.480469 19.65625 L 60.355469 19.65625 Z M 64.515625 19.433594 L 64.515625 20.894531 L 63.820312 20.894531 L 63.820312 19.433594 Z M 64.515625 19.433594 "/>
</g>
</svg>
