<?xml version="1.0" encoding="UTF-8"?>
<svg xmlns="http://www.w3.org/2000/svg" xmlns:xlink="http://www.w3.org/1999/xlink" width="24px" height="24px" viewBox="0 0 24 24" version="1.1">
<g id="surface1">
<path style=" stroke:none;fill-rule:nonzero;fill:rgb(0%,0%,0%);fill-opacity:1;" d="M 12.722656 0.0859375 C 12.347656 0.214844 12.078125 0.46875 11.90625 0.851562 C 11.832031 1.023438 11.8125 1.164062 11.8125 1.679688 L 11.8125 2.304688 L 12.226562 2.269531 C 12.710938 2.222656 13.902344 2.226562 14.269531 2.269531 L 14.53125 2.300781 L 14.53125 1.714844 C 14.53125 1.242188 14.511719 1.078125 14.4375 0.875 C 14.1875 0.210938 13.390625 -0.15625 12.722656 0.0859375 Z M 12.722656 0.0859375 "/>
<path style=" stroke:none;fill-rule:nonzero;fill:rgb(0%,0%,0%);fill-opacity:1;" d="M 11.957031 3.167969 C 9.519531 3.5 7.445312 4.625 5.90625 6.449219 C 4.867188 7.683594 4.175781 9.324219 4.050781 10.871094 L 4.015625 11.25 L 22.507812 11.25 L 22.476562 10.859375 C 22.171875 7.320312 19.292969 4.199219 15.542969 3.351562 C 14.414062 3.09375 13.03125 3.023438 11.957031 3.167969 Z M 11.957031 3.167969 "/>
<path style=" stroke:none;fill-rule:nonzero;fill:rgb(0%,0%,0%);fill-opacity:1;" d="M 2.574219 12.242188 C 2.597656 12.304688 2.816406 12.769531 3.0625 13.28125 C 3.464844 14.113281 3.539062 14.234375 3.804688 14.503906 C 3.980469 14.675781 4.226562 14.863281 4.398438 14.949219 C 5 15.253906 4.425781 15.234375 13.265625 15.234375 C 22.132812 15.234375 21.546875 15.253906 22.144531 14.9375 C 22.304688 14.859375 22.5625 14.65625 22.726562 14.492188 C 22.984375 14.234375 23.066406 14.09375 23.394531 13.425781 C 23.601562 13 23.816406 12.539062 23.882812 12.398438 L 23.996094 12.140625 L 2.53125 12.140625 Z M 2.574219 12.242188 "/>
<path style=" stroke:none;fill-rule:nonzero;fill:rgb(0%,0%,0%);fill-opacity:1;" d="M 21.472656 16.199219 C 21.359375 16.246094 18.015625 18.25 17.640625 18.492188 C 17.628906 18.496094 17.648438 18.570312 17.671875 18.660156 C 17.699219 18.75 17.722656 18.933594 17.726562 19.070312 C 17.734375 19.28125 17.71875 19.335938 17.617188 19.4375 L 17.492188 19.5625 L 14.640625 19.78125 C 11.585938 20.015625 11.5625 20.015625 11.441406 19.789062 C 11.304688 19.53125 11.460938 19.195312 11.734375 19.148438 C 11.816406 19.132812 12.875 19.050781 14.085938 18.960938 C 16.992188 18.746094 16.796875 18.769531 16.757812 18.617188 C 16.660156 18.230469 16.179688 17.699219 15.742188 17.492188 C 15.191406 17.230469 15.121094 17.230469 13.050781 17.394531 C 10.554688 17.585938 10.269531 17.570312 9.109375 17.136719 C 8.296875 16.832031 7.890625 16.757812 7.078125 16.761719 C 5.914062 16.765625 4.925781 17.085938 4.027344 17.742188 L 3.796875 17.914062 L 3.820312 18.203125 C 3.839844 18.359375 3.917969 19.4375 4.007812 20.597656 C 4.097656 21.753906 4.175781 22.707031 4.179688 22.714844 C 4.191406 22.71875 4.367188 22.617188 4.585938 22.476562 C 5.082031 22.152344 5.441406 22.03125 5.976562 22 C 6.359375 21.980469 6.671875 22.023438 9.40625 22.496094 C 12.707031 23.066406 13.046875 23.101562 13.875 22.941406 C 14.300781 22.859375 14.949219 22.644531 15.3125 22.457031 C 15.449219 22.390625 17.203125 21.007812 19.21875 19.386719 C 22.710938 16.574219 22.875 16.433594 22.796875 16.359375 C 22.5625 16.132812 21.820312 16.046875 21.472656 16.199219 Z M 21.472656 16.199219 "/>
<path style=" stroke:none;fill-rule:nonzero;fill:rgb(0%,0%,0%);fill-opacity:1;" d="M 1.410156 16.667969 C 0.65625 16.730469 0.03125 16.78125 0.0234375 16.789062 C 0.0078125 16.808594 0.558594 23.960938 0.578125 23.984375 C 0.605469 24.015625 3.304688 23.796875 3.34375 23.765625 C 3.382812 23.726562 2.863281 16.636719 2.816406 16.589844 C 2.804688 16.574219 2.171875 16.613281 1.410156 16.667969 Z M 1.410156 16.667969 "/>
</g>
</svg>
