<svg width="24" height="24" viewBox="0 0 24 24" fill="none" xmlns="http://www.w3.org/2000/svg">
<path d="M9.9999 15.4V10.6M9.9999 10.6L8.3999 12.4M9.9999 10.6L11.5999 12.4M13.9999 13V17.8M13.9999 17.8L15.5999 16M13.9999 17.8L12.3999 16" stroke="#4D4D4D" stroke-width="1.215" stroke-linecap="round" stroke-linejoin="round"/>
<path d="M5 8.00001H19M5 8.00001C3.89543 8.00001 3 7.10457 3 6C3 4.89543 3.89543 4 5 4H19C20.1046 4 21 4.89543 21 6C21 7.10457 20.1046 8.00001 19 8.00001M5 8.00001L5 18C5 19.1046 5.89544 20 7.00001 20H17C18.1046 20 19 19.1046 19 18V8.00001" stroke="#4D4D4D" stroke-width="1.65104" stroke-linecap="round" stroke-linejoin="round"/>
</svg>
