<svg width="32" height="24" viewBox="0 0 32 24" fill="none" xmlns="http://www.w3.org/2000/svg">
<path d="M29.8446 2.7591C29.2903 2.31164 28.0804 2.26396 28.0804 2.26396C28.0804 2.26396 27.6246 0.754188 26.0902 0.262092C25.4932 0.0713416 25.0106 -0.0291068 24.5977 0.00741992C24.2992 0.0338003 24.2832 0.265136 24.3121 0.469077C24.339 0.721114 24.4209 0.963802 24.5519 1.17932C24.6758 1.37513 24.8277 1.55092 25.0027 1.70084C25.6873 2.30962 26.0972 2.11582 26.6654 2.27106C27.1997 2.41717 27.3281 2.77837 27.3281 2.77837C27.1818 2.61354 26.9888 2.49933 26.7758 2.45166C26.6219 2.4153 26.4656 2.39021 26.3082 2.37658C25.8644 2.34208 25.3668 2.43036 24.8056 1.93217C24.6283 1.78912 24.4747 1.61781 24.3509 1.42486C24.3358 1.39957 24.3132 1.37978 24.2864 1.3683C24.2596 1.35683 24.2299 1.35425 24.2016 1.36094L24.1618 1.37108C23.9628 1.41877 23.8434 1.50096 23.9509 1.7607C24.0792 2.07016 24.4643 2.39282 24.9221 2.59777C25.4076 2.81693 25.9917 2.8007 26.4146 2.90723C26.6556 2.95935 26.8744 3.08708 27.0405 3.2725C26.9285 3.42741 26.8402 3.59882 26.7788 3.78083C26.6949 4.02051 26.6564 4.27427 26.6654 4.52861C26.6654 4.52861 22.5707 3.20249 19.4791 2.22236C14.3526 0.598949 10.645 4.43932 8.33452 7.28739C4.29958 12.2591 1.31542 11.1491 0.374101 10.8305C0.33656 10.8179 0.296858 10.8133 0.25751 10.8172C0.218162 10.821 0.180024 10.8331 0.14551 10.8528C0.110996 10.8724 0.0808582 10.8992 0.0570034 10.9313C0.0331486 10.9634 0.0160965 11.0003 0.00692662 11.0395C-0.00579925 11.0976 -0.000911394 11.1584 0.0209431 11.2136C0.0427976 11.2689 0.0805892 11.3161 0.129318 11.349C3.06572 13.2768 5.9265 12.3808 10.1963 9.11677C12.8063 7.12099 14.2382 7.17781 14.2382 7.17781C14.2382 10.4043 15.9367 9.83411 16.2571 12.9876C16.4303 14.7043 15.7347 16.0376 15.1626 17.0887C14.9695 17.4459 15.0899 17.9004 15.3735 18.1855C16.4183 19.2448 18.9209 21.6525 18.7567 23.4231C18.7581 23.4905 18.7789 23.556 18.8166 23.6114C18.8543 23.6668 18.9072 23.7096 18.9687 23.7345L19.5776 23.971C19.8811 24.0886 20.1528 23.8319 20.1398 23.5022C20.109 22.723 19.6891 21.2497 18.5657 19.7298C16.9895 17.5991 17.0731 16.6463 18.4005 15.1112C19.5279 13.8115 20.6891 12.8344 21.1279 10.66C21.5399 8.60641 20.5747 7.26608 20.0443 6.70296C20.0364 6.69583 20.0316 6.68579 20.0309 6.67504C20.0303 6.66429 20.0338 6.65371 20.0408 6.64564C20.0478 6.63756 20.0577 6.63266 20.0682 6.63199C20.0788 6.63132 20.0891 6.63495 20.097 6.64209C20.6322 7.01176 21.0636 7.51738 21.3486 8.10903C21.6335 8.70067 21.7622 9.35787 21.722 10.0157C22.5881 9.93808 23.4432 9.76248 24.2713 9.49218C24.3308 9.4715 24.3948 9.46822 24.456 9.48273C24.5172 9.49724 24.5732 9.52896 24.6177 9.57428C24.6621 9.61959 24.6932 9.6767 24.7074 9.73913C24.7217 9.80156 24.7185 9.8668 24.6982 9.92746C24.4564 10.5931 24.0211 11.1677 23.4504 11.5742C23.3734 11.6237 23.3076 11.6894 23.2575 11.767C23.2074 11.8445 23.1741 11.932 23.1598 12.0237L23.0464 12.5909C23.0341 12.6505 23.0387 12.7125 23.0597 12.7696C23.0806 12.8266 23.1171 12.8765 23.1647 12.9133C23.2124 12.95 23.2693 12.9723 23.3288 12.9773C23.3884 12.9824 23.4481 12.9701 23.5011 12.9419C24.2563 12.5677 24.8972 11.9907 25.3549 11.2729C25.7795 10.6109 26.0739 9.871 26.2216 9.09445C26.2972 8.69982 26.4807 8.33504 26.751 8.04228C27.1052 7.65266 27.6694 7.06417 28.4426 6.32958C28.8505 5.94504 30.7063 6.48888 31.0993 6.14289C31.3799 5.8943 31.6476 5.16783 31.6476 5.16783C31.5899 4.92736 30.6356 3.3973 29.8446 2.7591Z" fill="white"/>
</svg>
