<svg width="92" height="24" viewBox="0 0 92 24" fill="none" xmlns="http://www.w3.org/2000/svg">
<path d="M48.1078 6.69891H51.292V18.6634H48.1078V6.69891ZM49.6909 1.82868C48.6959 1.82868 47.9565 2.55617 47.9565 3.59414C47.9565 4.6321 48.6929 5.37786 49.6909 5.37786C50.7228 5.37786 51.4422 4.63312 51.4422 3.59414C51.4422 2.55516 50.7228 1.8297 49.6909 1.8297V1.82868ZM59.2852 6.39452C55.703 6.39452 53.303 8.82963 53.303 12.6791C53.303 16.482 55.7607 18.9638 59.2852 18.9638C62.348 18.9638 64.5978 17.178 64.957 14.1848V14.1777H62.1559C61.748 15.3436 60.7002 16.0193 59.3489 16.0193C57.5041 16.0193 56.2185 14.7003 56.2185 12.671C56.2185 10.6205 57.4722 9.32274 59.3489 9.32274C60.7161 9.32274 61.7709 10.0056 62.1669 11.1836H64.953V11.1694C64.6257 8.18128 62.3679 6.39553 59.2852 6.39553V6.39452ZM46.1047 12.6802C46.1047 16.484 43.9823 18.9658 40.9106 18.9658C39.41 18.9658 38.2727 18.3621 37.4995 17.2724H37.2717V23.9983H34.0775V6.69586H37.2717V8.08793H37.4995C38.2727 6.99721 39.3643 6.39452 40.8887 6.39452C44.0042 6.39452 46.1047 8.82963 46.1047 12.6802ZM42.9445 12.6802C42.9445 10.7767 41.7723 9.34202 40.1086 9.34202C38.4717 9.34202 37.2717 10.7767 37.2717 12.6802C37.2717 14.5836 38.4717 16.0183 40.1086 16.0183C41.7723 16.0183 42.9445 14.5836 42.9445 12.6802ZM29.8446 2.7591C29.2903 2.31164 28.0804 2.26396 28.0804 2.26396C28.0804 2.26396 27.6246 0.754188 26.0902 0.262092C25.4932 0.0713416 25.0106 -0.0291068 24.5977 0.00741992C24.2992 0.0338003 24.2832 0.265136 24.3121 0.469077C24.339 0.721114 24.4209 0.963802 24.5519 1.17932C24.6758 1.37513 24.8277 1.55092 25.0027 1.70084C25.6873 2.30962 26.0972 2.11582 26.6654 2.27106C27.1997 2.41717 27.3281 2.77837 27.3281 2.77837C27.1818 2.61354 26.9888 2.49933 26.7758 2.45166C26.6219 2.4153 26.4656 2.39021 26.3082 2.37658C25.8644 2.34208 25.3668 2.43036 24.8056 1.93217C24.6283 1.78912 24.4747 1.61781 24.3509 1.42486C24.3358 1.39957 24.3132 1.37978 24.2864 1.3683C24.2596 1.35683 24.2299 1.35425 24.2016 1.36094L24.1618 1.37108C23.9628 1.41877 23.8434 1.50096 23.9509 1.7607C24.0792 2.07016 24.4643 2.39282 24.9221 2.59777C25.4076 2.81693 25.9917 2.8007 26.4146 2.90723C26.6556 2.95935 26.8744 3.08708 27.0405 3.2725C26.9285 3.42741 26.8402 3.59882 26.7788 3.78083C26.6949 4.02051 26.6564 4.27427 26.6654 4.52861C26.6654 4.52861 22.5707 3.20249 19.4791 2.22236C14.3526 0.598949 10.645 4.43932 8.33452 7.28739C4.29959 12.2591 1.31542 11.1491 0.374101 10.8305C0.33656 10.8179 0.296858 10.8133 0.25751 10.8172C0.218162 10.821 0.180024 10.8331 0.14551 10.8528C0.110996 10.8724 0.0808582 10.8992 0.0570034 10.9313C0.0331486 10.9634 0.0160965 11.0003 0.00692662 11.0395C-0.00579925 11.0976 -0.000911394 11.1584 0.0209431 11.2136C0.0427976 11.2689 0.0805892 11.3161 0.129318 11.349C3.06572 13.2768 5.9265 12.3808 10.1963 9.11677C12.8063 7.12099 14.2382 7.17781 14.2382 7.17781C14.2382 10.4043 15.9367 9.83411 16.2571 12.9876C16.4303 14.7043 15.7347 16.0376 15.1626 17.0887C14.9695 17.4459 15.0899 17.9004 15.3735 18.1855C16.4183 19.2448 18.9209 21.6525 18.7567 23.4231C18.7581 23.4905 18.7789 23.556 18.8166 23.6114C18.8543 23.6668 18.9072 23.7096 18.9687 23.7345L19.5776 23.971C19.8811 24.0886 20.1528 23.8319 20.1398 23.5022C20.109 22.723 19.6891 21.2497 18.5657 19.7298C16.9895 17.5991 17.0731 16.6463 18.4005 15.1112C19.5279 13.8115 20.6891 12.8344 21.1279 10.66C21.5399 8.60641 20.5747 7.26608 20.0443 6.70296C20.0364 6.69583 20.0316 6.68579 20.0309 6.67504C20.0303 6.66429 20.0338 6.65371 20.0408 6.64564C20.0478 6.63756 20.0577 6.63266 20.0682 6.63199C20.0788 6.63132 20.0891 6.63495 20.097 6.64209C20.6322 7.01176 21.0636 7.51738 21.3486 8.10903C21.6335 8.70067 21.7622 9.35787 21.722 10.0157C22.5881 9.93808 23.4432 9.76248 24.2713 9.49218C24.3308 9.4715 24.3948 9.46822 24.456 9.48273C24.5172 9.49724 24.5732 9.52896 24.6177 9.57428C24.6621 9.61959 24.6932 9.6767 24.7074 9.73913C24.7217 9.80156 24.7185 9.8668 24.6982 9.92746C24.4564 10.5931 24.0211 11.1677 23.4504 11.5742C23.3734 11.6237 23.3076 11.6894 23.2575 11.767C23.2074 11.8445 23.1741 11.932 23.1598 12.0237L23.0464 12.5909C23.0341 12.6505 23.0387 12.7125 23.0597 12.7696C23.0806 12.8266 23.1171 12.8765 23.1647 12.9133C23.2124 12.95 23.2693 12.9723 23.3288 12.9773C23.3884 12.9824 23.4481 12.9701 23.5011 12.9419C24.2563 12.5677 24.8972 11.9907 25.3549 11.2729C25.7795 10.6109 26.0739 9.871 26.2216 9.09445C26.2972 8.69982 26.4807 8.33504 26.751 8.04228C27.1052 7.65266 27.6694 7.06417 28.4426 6.32958C28.8505 5.94504 30.7063 6.48888 31.0993 6.14289C31.3799 5.8943 31.6476 5.16783 31.6476 5.16783C31.5899 4.92736 30.6356 3.3973 29.8446 2.7591ZM78.6022 6.69586H74.3603L70.3671 11.0801H70.1392V3.40745H66.9551V18.6644H70.1392V13.8632H70.3671L74.3533 18.6644H78.6111L73.3612 12.4478L78.6022 6.69586ZM88.9716 3.40745H85.7934V14.4344C85.7926 15.6361 86.2599 16.7888 87.0926 17.6391C87.9252 18.4894 89.0549 18.9678 90.2333 18.9688C91.1199 18.9688 91.6364 18.8014 91.6364 18.8014V15.6256C91.4191 15.7017 91.1904 15.7378 90.9607 15.7322C90.4376 15.7322 89.9359 15.5207 89.5655 15.1441C89.195 14.7675 88.9861 14.2566 88.9846 13.7232L88.9716 9.64032H91.6364V6.69891H88.9716V3.40745ZM80.2082 18.6634H83.3924V6.69992H80.2082V18.6634ZM81.7913 1.83071C80.7963 1.83071 80.0559 2.55719 80.0559 3.59617C80.0559 4.63515 80.7933 5.37887 81.7913 5.37887C82.8222 5.37887 83.5426 4.63515 83.5426 3.59617C83.5426 2.55719 82.8222 1.83071 81.7913 1.83071Z" fill="white"/>
</svg>
