<svg width="24" height="24" viewBox="0 0 24 24" fill="none" xmlns="http://www.w3.org/2000/svg">
<mask id="mask0_1946_6215" style="mask-type:alpha" maskUnits="userSpaceOnUse" x="0" y="0" width="24" height="24">
<rect width="24" height="24" fill="#C4C4C4"/>
</mask>
<g mask="url(#mask0_1946_6215)">
<path d="M21 13.5V5C21 3.89543 20.1046 3 19 3H5C3.89543 3 3 3.89543 3 5V19C3 20.1046 3.89543 21 5 21H13.5" stroke="#4D4D4D" stroke-width="2"/>
<rect x="10" y="3" width="4" height="4" rx="1" stroke="#4D4D4D" stroke-width="2"/>
<path d="M16.5 22C19.5376 22 22 19.5376 22 16.5C22 13.4624 19.5376 11 16.5 11C13.4624 11 11 13.4624 11 16.5C11 19.5376 13.4624 22 16.5 22Z" stroke="#4D4D4D" stroke-width="2" stroke-miterlimit="10"/>
<path d="M18.9499 15.1213L16.1215 17.9497L14.0002 15.8284" stroke="#4D4D4D" stroke-width="1.5" stroke-linecap="round"/>
</g>
</svg>
