<svg width="24" height="24" viewBox="0 0 24 24" fill="none" xmlns="http://www.w3.org/2000/svg">
<path d="M12 5H4.5C3.67157 5 3 5.67157 3 6.5V17.5C3 18.3284 3.67157 19 4.5 19H19.5C20.3284 19 21 18.3284 21 17.5V9.5C21 8.67157 20.3284 8 19.5 8H6.5" stroke="#4D4D4D" stroke-width="2" stroke-linecap="round"/>
<path d="M12 5H17.5C18.3284 5 19 5.67157 19 6.5V7.5" stroke="#4D4D4D" stroke-width="2"/>
<path d="M21 11H16C14.8954 11 14 11.8954 14 13V13C14 14.1046 14.8954 15 16 15H21" stroke="#4D4D4D" stroke-width="2"/>
</svg>
